<svg width="241" height="241" viewBox="0 0 241 241" fill="none" xmlns="http://www.w3.org/2000/svg">
<path d="M239.431 103.355C238.419 99.0814 236.251 95.7575 232.907 93.3833C229.583 91.0091 224.855 89.3782 218.765 88.5111C212.675 87.644 204.52 87.1898 194.362 87.1898H157.201C152.019 87.1898 147.684 87.3136 144.174 87.6027C140.664 87.8711 137.526 88.4491 134.739 89.3369C131.973 90.2246 129.413 91.5046 127.121 93.1975C124.809 94.8904 122.352 97.1614 119.771 100.01C118.099 101.91 116.344 104.036 114.507 106.41C112.649 108.785 110.853 111.117 109.098 113.43C107.343 115.742 105.671 117.91 104.102 119.933C102.533 121.956 101.088 123.649 99.8076 125.012C97.3921 127.592 94.9147 129.141 92.3134 129.698C89.7327 130.235 85.4798 130.503 79.5547 130.503H46.5638C38.987 130.503 34.0941 129.925 31.8644 128.769C29.6347 127.613 28.5405 124.867 28.5405 120.532C28.5405 118.364 28.7676 116.63 29.2425 115.35C29.6967 114.049 30.5844 113.079 31.8851 112.397C33.1651 111.716 34.9818 111.283 37.2941 111.076C39.6063 110.87 42.7031 110.767 46.5844 110.767H59.467C65.1857 110.767 69.8308 106.121 69.8308 100.403V87.9743V50.5859C57.2373 50.5859 47.0386 60.7846 47.0386 73.3782V87.9949H46.5844C36.2205 87.9949 28.0038 88.4698 21.9135 89.4194C15.8231 90.3691 11.1986 92.062 8.03991 94.4981C4.90185 96.9343 2.81669 100.258 1.80508 104.47C0.793468 108.681 0.277344 114.09 0.277344 120.738C0.277344 127.654 0.793468 133.27 1.80508 137.626C2.81669 141.961 4.94314 145.347 8.18443 147.783C11.4257 150.219 16.0915 151.892 22.1818 152.759C28.2928 153.646 36.4063 154.08 46.5844 154.08H81.805C87.916 154.08 92.9947 153.915 97.0618 153.564C101.129 153.213 104.639 152.552 107.591 151.541C110.543 150.529 113.227 148.96 115.622 146.854C118.017 144.748 120.7 142.003 123.673 138.617C127.555 134.013 130.796 129.781 133.377 125.899C135.957 122.039 138.269 118.942 140.313 116.65C142.543 113.946 144.711 112.232 146.837 111.572C148.964 110.89 152.246 110.56 156.685 110.56H194.404C198.285 110.56 201.423 110.663 203.838 110.87C206.233 111.076 208.029 111.51 209.247 112.191C210.445 112.872 211.291 113.843 211.746 115.143C212.2 116.423 212.427 118.219 212.427 120.532C212.427 122.699 212.2 124.454 211.746 125.817C211.291 127.179 210.445 128.191 209.247 128.872C208.05 129.554 206.233 129.987 203.838 130.194C201.423 130.4 198.285 130.503 194.404 130.503H181.789C176.071 130.503 171.426 135.148 171.426 140.867V153.275V190.684C184.019 190.684 194.218 180.485 194.218 167.892V153.275H194.404C204.561 153.275 212.695 152.841 218.806 151.954C224.917 151.066 229.624 149.414 232.948 146.978C236.272 144.542 238.44 141.177 239.472 136.903C240.484 132.63 241 127.035 241 120.119C240.958 113.203 240.463 107.608 239.431 103.355Z" fill="#164732"/>
<path d="M153.253 69.8299H190.662C190.662 57.2363 180.464 47.0376 167.87 47.0376H153.253V46.8725C153.253 36.715 152.82 28.5809 151.932 22.4699C151.044 16.3589 149.393 11.6518 146.957 8.32797C144.521 5.00411 141.155 2.83637 136.882 1.80411C132.608 0.792496 127.013 0.276367 120.097 0.276367C113.181 0.276367 107.586 0.792496 103.313 1.80411C99.0393 2.81572 95.7154 4.98346 93.3412 8.32797C90.967 11.6518 89.336 16.3796 88.4689 22.4699C87.6018 28.5602 87.1476 36.715 87.1476 46.8725V84.0337C87.1476 89.2157 87.2715 93.5511 87.5605 97.0608C87.8289 100.57 88.407 103.709 89.2947 106.496C90.1825 109.262 91.4625 111.822 93.1554 114.114C94.8483 116.426 97.1192 118.883 99.9683 121.463C101.868 123.136 103.994 124.89 106.368 126.728C108.742 128.586 111.075 130.382 113.388 132.137C115.7 133.892 117.868 135.564 119.891 137.133C121.914 138.702 123.607 140.147 124.97 141.427C127.55 143.843 129.099 146.32 129.656 148.921C130.193 151.523 130.461 155.755 130.461 161.68V194.671C130.461 202.248 129.883 207.141 128.727 209.37C127.571 211.6 124.825 212.694 120.49 212.694C118.322 212.694 116.588 212.467 115.308 211.992C114.007 211.538 113.037 210.65 112.355 209.35C111.674 208.07 111.241 206.253 111.034 203.941C110.828 201.628 110.724 198.532 110.724 194.65V181.768C110.724 176.049 106.079 171.404 100.361 171.404H87.9322H50.5645C50.5645 183.998 60.7632 194.196 73.3567 194.196H87.9735V194.65C87.9735 205.014 88.4483 213.231 89.398 219.321C90.3477 225.432 92.0406 230.036 94.4767 233.195C96.9128 236.333 100.237 238.418 104.448 239.43C108.66 240.441 114.069 240.957 120.717 240.957C127.633 240.957 133.248 240.441 137.604 239.43C141.94 238.418 145.326 236.292 147.762 233.05C150.198 229.809 151.87 225.143 152.737 219.053C153.625 212.942 154.059 204.828 154.059 194.65V159.471C154.059 153.36 153.893 148.281 153.542 144.214C153.191 140.147 152.531 136.638 151.519 133.685C150.508 130.733 148.939 128.049 146.833 125.654C144.727 123.26 141.981 120.576 138.595 117.603C133.991 113.721 129.759 110.48 125.878 107.9C122.017 105.319 118.921 103.007 116.629 100.963C113.924 98.7331 112.211 96.5653 111.55 94.4389C110.869 92.3124 110.539 89.0299 110.539 84.5911V46.8725C110.539 42.9912 110.642 39.8531 110.848 37.4376C111.055 35.0428 111.488 33.2467 112.17 32.0286C112.851 30.8312 113.821 29.9847 115.122 29.5305C116.402 29.0763 118.198 28.8493 120.51 28.8493C122.678 28.8493 124.433 29.0763 125.795 29.5305C127.158 29.9847 128.17 30.8312 128.851 32.0286C129.532 33.226 129.966 35.0428 130.172 37.4376C130.379 39.8531 130.482 42.9912 130.482 46.8725V59.4866C130.482 65.2054 135.127 69.8505 140.846 69.8505H153.253V69.8299Z" fill="#51B949"/>
</svg>
