<svg width="668" height="91" viewBox="0 0 668 91" fill="none" xmlns="http://www.w3.org/2000/svg">
<path d="M449.657 83.9003C443.386 83.9003 438.586 82.1196 435.257 78.5583C431.928 74.997 430.264 69.9648 430.264 63.4615V20.7259C430.264 14.2226 431.928 9.19036 435.257 5.62906C438.586 2.06776 443.386 0.287109 449.657 0.287109C455.928 0.287109 460.728 2.06776 464.057 5.62906C467.386 9.19036 469.051 14.2226 469.051 20.7259V63.4615C469.051 69.9648 467.386 74.997 464.057 78.5583C460.728 82.1196 455.928 83.9003 449.657 83.9003ZM449.657 72.2873C454.07 72.2873 456.277 69.6164 456.277 64.2744V19.913C456.277 14.571 454.07 11.9001 449.657 11.9001C445.244 11.9001 443.038 14.571 443.038 19.913V64.2744C443.038 69.6164 445.244 72.2873 449.657 72.2873Z" fill="#164732"/>
<path d="M289.342 48.0766L273.896 1.39258H278.722C283.914 1.39258 288.484 4.81912 289.938 9.80357L296.193 31.2378H296.426L302.681 9.80356C304.135 4.81912 308.705 1.39258 313.897 1.39258H317.561L302.116 48.0766V70.2094C302.116 77.0985 296.531 82.6832 289.642 82.6832H289.342V48.0766Z" fill="#164732"/>
<path d="M94.2416 90.2876C88.5065 90.2876 84.9889 87.7259 83.6889 82.6025C81.3184 83.5201 78.5273 83.9789 75.3156 83.9789C69.1216 83.9789 64.3806 82.2201 61.0924 78.7026C57.8042 75.185 56.1602 70.2145 56.1602 63.7911V21.5803C56.1602 15.157 57.8042 10.1865 61.0924 6.66893C64.3806 3.15136 69.1216 1.39258 75.3156 1.39258C81.5096 1.39258 86.2506 3.15136 89.5388 6.66893C92.827 10.1865 94.471 15.157 94.471 21.5803V63.7911C94.471 69.144 93.2858 73.5409 90.9152 76.982C91.374 77.7467 91.9476 78.2438 92.6358 78.4732C93.324 78.7026 94.3181 78.8173 95.6181 78.8173H97.568V90.2876H94.2416ZM75.3156 72.5086C79.6743 72.5086 81.8537 69.8704 81.8537 64.5941V20.7774C81.8537 15.5011 79.6743 12.8629 75.3156 12.8629C70.9569 12.8629 68.7775 15.5011 68.7775 20.7774V64.5941C68.7775 69.8704 70.9569 72.5086 75.3156 72.5086Z" fill="#164732"/>
<path d="M36.5801 70.2069C36.5801 77.2912 42.323 83.0342 49.4073 83.0342V14.2198C49.4073 7.13554 43.6644 1.39258 36.5801 1.39258V70.2069Z" fill="#164732"/>
<path d="M149.318 70.2069C149.318 77.2912 155.061 83.0342 162.146 83.0342V14.2198C162.146 7.13554 156.403 1.39258 149.318 1.39258V70.2069Z" fill="#164732"/>
<path d="M214.842 70.2069C214.842 77.2912 220.585 83.0342 227.669 83.0342V14.2198C227.669 7.13554 221.926 1.39258 214.842 1.39258V70.2069Z" fill="#164732"/>
<path d="M522.406 70.2069C522.406 77.2912 528.149 83.0342 535.234 83.0342V14.2198C535.234 7.13554 529.491 1.39258 522.406 1.39258V70.2069Z" fill="#164732"/>
<path d="M0.263672 78.788C0.263672 81.1331 2.16474 83.0342 4.50982 83.0342H34.1976C34.1976 76.5928 28.9759 71.3711 22.5345 71.3711H13.0909V14.2198C13.0909 7.13553 7.34797 1.39258 0.263672 1.39258V78.788Z" fill="#164732"/>
<path d="M140.235 1.70898C134.247 1.70898 129.394 6.56173 129.394 12.55V63.6729C129.394 69.4178 126.866 71.486 122.851 71.486C118.823 71.486 116.309 69.4178 116.309 63.6729V12.5364C116.309 6.54822 111.456 1.70898 105.481 1.70898H103.684V62.8754C103.684 75.7305 110.104 83.0704 122.5 83.0704C134.895 83.0704 141.316 75.7305 141.316 62.8754V1.70898H140.235Z" fill="#164732"/>
<path d="M169.686 75.2632C169.686 79.351 172.999 82.6649 177.087 82.6649H189.809C202.531 82.6649 208.776 75.6102 208.776 62.6572V21.7167C208.776 8.76371 202.531 1.70898 189.809 1.70898H177.087C172.999 1.70898 169.686 5.02283 169.686 9.11067V75.2632ZM189.578 13.2741C193.625 13.2741 196.054 15.3558 196.054 21.1384V63.2355C196.054 69.018 193.625 71.0998 189.578 71.0998H182.407V13.2741H189.578Z" fill="#164732"/>
<path d="M541.691 75.2632C541.691 79.351 545.005 82.6649 549.093 82.6649H561.815C574.536 82.6649 580.782 75.6102 580.782 62.6572V21.7167C580.782 8.76371 574.536 1.70898 561.815 1.70898H549.093C545.005 1.70898 541.691 5.02283 541.691 9.11067V75.2632ZM561.583 13.2741C565.631 13.2741 568.06 15.3558 568.06 21.1384V63.2355C568.06 69.018 565.631 71.0998 561.583 71.0998H554.413V13.2741H561.583Z" fill="#164732"/>
<path d="M243.316 13.3256H241.619C235.203 13.3256 230.002 8.12464 230.002 1.70898H257.75C264.165 1.70898 269.366 6.9099 269.366 13.3256H256.052V70.2895C256.052 77.3231 250.35 83.025 243.316 83.025V13.3256Z" fill="#164732"/>
<path d="M359.792 1.39258H347.834C344.043 1.39258 340.979 4.45751 340.979 8.2476V82.7086C348.039 82.7086 353.758 76.9893 353.758 69.929V52.1553H359.792C372.572 52.1553 378.852 45.0676 378.852 32.0554V21.4924C378.852 8.4802 372.572 1.39258 359.792 1.39258ZM366.073 32.8764C366.073 38.6778 363.87 40.5387 359.792 40.5387H353.758V13.0092H359.792C363.87 13.0092 366.073 14.87 366.073 20.6715V32.8764Z" fill="#164732"/>
<path d="M425.86 83.0342C424.577 80.0018 424.46 77.086 424.46 73.1205V60.5244C424.46 52.0104 422.361 45.8289 415.948 43.1464C421.662 40.4639 424.344 34.9823 424.344 26.5848V20.1701C424.344 7.57402 418.63 1.39258 405.336 1.39258H390.225C387.88 1.39258 385.979 3.29365 385.979 5.63873V83.0342C393.063 83.0342 398.806 77.2912 398.806 70.2069V49.7944H403.237C409.068 49.7944 411.633 52.5935 411.633 60.1745V73.0039C411.633 79.0684 416.89 83.0342 422.954 83.0342H425.86ZM404.986 13.0557C409.534 13.0557 411.516 15.6215 411.516 21.4531V29.5006C411.516 36.0319 408.601 38.1313 403.82 38.1313H398.806V13.0557H404.986Z" fill="#164732"/>
<path d="M668.002 83.0342C666.72 80.0018 666.603 77.086 666.603 73.1205V60.5244C666.603 52.0104 664.504 45.8289 658.09 43.1464C663.804 40.4639 666.486 34.9823 666.486 26.5848V20.1701C666.486 7.57402 660.772 1.39258 647.479 1.39258H632.367C630.022 1.39258 628.121 3.29365 628.121 5.63873V83.0342C635.205 83.0342 640.948 77.2912 640.948 70.2069V49.7944H645.38C651.21 49.7944 653.776 52.5935 653.776 60.1745V73.0039C653.776 79.0684 659.032 83.0342 665.097 83.0342H668.002ZM647.129 13.0557C651.677 13.0557 653.659 15.6215 653.659 21.4531V29.5006C653.659 36.0319 650.744 38.1313 645.963 38.1313H640.948V13.0557H647.129Z" fill="#164732"/>
<path d="M487.234 14.1987C486.152 6.84309 479.841 1.39258 472.406 1.39258L484.445 79.4354C484.765 81.506 486.547 83.0342 488.642 83.0342H500.483C502.578 83.0342 504.36 81.506 504.68 79.4354L516.719 1.39258C509.954 1.39258 504.211 6.35204 503.227 13.0449L495.145 67.9888L487.234 14.1987Z" fill="#164732"/>
<path d="M587.406 5.45838C587.406 3.2129 589.227 1.39258 591.472 1.39258H622.15C622.15 7.80824 616.949 13.0092 610.534 13.0092H600.146V34.4998H617.634C617.634 40.9155 612.433 46.1164 606.017 46.1164H600.146V71.0921H610.534C616.949 71.0921 622.15 76.293 622.15 82.7086H591.472C589.227 82.7086 587.406 80.8883 587.406 78.6428V5.45838Z" fill="#164732"/>
</svg>
