<svg width="56" height="120" viewBox="0 0 56 120" fill="none" xmlns="http://www.w3.org/2000/svg">
<path d="M27.9038 119.544C18.9429 119.544 12.0839 116.998 7.32693 111.906C2.56992 106.814 0.191406 99.6196 0.191406 90.3218V29.2218C0.191406 19.9239 2.56992 12.7292 7.32693 7.6375C12.0839 2.54583 18.9429 0 27.9038 0C36.8647 0 43.7236 2.54583 48.4806 7.6375C53.2376 12.7292 55.6161 19.9239 55.6161 29.2218V90.3218C55.6161 99.6196 53.2376 106.814 48.4806 111.906C43.7236 116.998 36.8647 119.544 27.9038 119.544ZM27.9038 102.94C34.2096 102.94 37.3625 99.1215 37.3625 91.484V28.0595C37.3625 20.422 34.2096 16.6033 27.9038 16.6033C21.598 16.6033 18.4451 20.422 18.4451 28.0595V91.484C18.4451 99.1215 21.598 102.94 27.9038 102.94Z" fill="#164732"/>
</svg>
