<svg width="60" height="121" viewBox="0 0 60 121" fill="none" xmlns="http://www.w3.org/2000/svg">
<path d="M57.0029 105.964V87.3531C57.0029 74.79 53.8977 65.6569 44.4196 61.6789C52.8626 57.7212 56.8202 49.6232 56.8202 37.2225V27.7444C56.8202 9.13313 48.3773 0 28.7312 0H10.3028C4.68097 0 0.134766 4.54628 0.134766 10.1682V120.618C10.6073 120.618 19.0908 112.134 19.0908 101.662V71.5021H25.6463C34.2516 71.5021 38.0468 75.6424 38.0468 86.8457V107.913C38.1483 114.955 43.892 120.618 50.9548 120.618H59.073C57.1652 116.132 57.0029 111.83 57.0029 105.964ZM37.8642 41.5252C37.8642 51.186 33.5615 54.2709 26.4987 54.2709H19.0908V17.2311H28.2238C34.9416 17.2311 37.8642 21.0264 37.8642 29.6319V41.5252Z" fill="#51B949"/>
</svg>
