<svg width="42" height="84" viewBox="0 0 42 84" fill="none" xmlns="http://www.w3.org/2000/svg">
<path d="M41.0936 83.2048C39.7925 80.1294 39.6742 77.1723 39.6742 73.1507V60.376C39.6742 51.7413 37.5451 45.4723 31.0395 42.7518C36.8354 40.0313 39.5559 34.4719 39.5559 25.9555V19.4499C39.5559 6.67529 33.76 0.40625 20.2757 0.40625H1.35977C0.9626 0.40625 0.640625 0.728224 0.640625 1.1254V83.2048H4.30289C9.46616 83.2048 13.6518 79.0191 13.6518 73.8559V49.494H18.1466C24.0608 49.494 26.663 52.3328 26.663 60.0212V73.0324C26.663 79.1829 31.9944 83.2048 38.145 83.2048H41.0936ZM19.9209 12.2346C24.5339 12.2346 26.5447 14.8369 26.5447 20.751V28.9126C26.5447 35.5365 23.5877 37.6656 18.738 37.6656H13.6518V12.2346H19.9209Z" fill="#164732"/>
</svg>
