<svg width="50" height="121" viewBox="0 0 50 121" fill="none" xmlns="http://www.w3.org/2000/svg">
<path d="M47.1869 39.5702C39.1143 39.5702 32.5755 33.0655 32.5755 25.035V24.9748C32.5755 22.8869 32.4948 21.2005 32.3535 19.9156C32.2122 18.6307 31.8893 17.6671 31.3848 17.0045C30.8803 16.3621 30.1336 15.9204 29.1447 15.6594C28.1356 15.4185 26.844 15.278 25.2496 15.278C23.5544 15.278 22.2224 15.3985 21.2739 15.6594C20.3254 15.9004 19.5988 16.3621 19.0943 17.0045C18.5898 17.647 18.2669 18.6106 18.1256 19.9156C17.9843 21.2005 17.9036 22.8869 17.9036 24.9748V36.5989C17.9036 38.988 18.1458 40.7547 18.6503 41.879C19.1548 43.0233 20.4061 44.1877 22.4041 45.3722C24.0993 46.4764 26.3798 47.7011 29.2254 49.1064C32.071 50.4917 35.1991 52.2383 38.5896 54.3262C41.0921 55.9122 43.1102 57.3577 44.6642 58.6426C46.2182 59.9275 47.3685 61.373 48.1152 62.959C48.8619 64.545 49.3665 66.4322 49.6087 68.6205C49.8508 70.8088 49.9921 73.5392 49.9921 76.8116V95.7234C49.9921 101.184 49.6692 105.561 49.0234 108.833C48.3776 112.106 47.1465 114.615 45.3504 116.362C43.5542 118.108 41.0517 119.233 37.8631 119.795C34.6744 120.337 30.517 120.618 25.4313 120.618C20.5474 120.618 16.5514 120.337 13.4435 119.795C10.3557 119.253 7.89358 118.128 6.09743 116.442C4.30128 114.756 3.05003 112.266 2.34368 108.994C1.63733 105.721 1.29424 101.305 1.29424 95.7434V72.3547H1.35479C10.5777 72.3547 18.065 79.8029 18.065 88.9778V95.7434C18.065 97.8314 18.1458 99.4977 18.287 100.742C18.4283 101.987 18.7512 102.951 19.2557 103.653C19.7603 104.356 20.4868 104.818 21.4353 105.079C22.3839 105.32 23.6553 105.46 25.2496 105.46C28.4383 105.46 30.4565 104.858 31.3243 103.674C32.1719 102.489 32.5957 99.8591 32.5957 95.7836V78.0563C32.5957 74.8843 32.3939 72.5956 31.9902 71.2103C31.5866 69.825 30.4363 68.4799 28.5392 67.1951C27.5301 66.4924 26.2991 65.7295 24.7855 64.8863C23.292 64.0431 21.6977 63.1397 19.9823 62.1961C18.287 61.2525 16.5514 60.2888 14.8158 59.285C13.06 58.3013 11.4859 57.3577 10.0934 56.4543C7.99449 55.0691 6.31943 53.744 5.06818 52.4993C3.81693 51.2546 2.8684 49.8894 2.22259 48.4037C1.57678 46.9181 1.15297 45.2317 0.951159 43.3446C0.749345 41.4574 0.648438 39.1285 0.648438 36.3379V25.015C0.648438 19.5542 0.971341 15.1776 1.61715 11.9052C2.26295 8.63278 3.47384 6.10318 5.20945 4.3164C6.96523 2.52962 9.40719 1.36519 12.5555 0.823132C15.7038 0.281074 19.8208 0 24.9066 0C29.9923 0 34.1093 0.281074 37.2576 0.823132C40.4059 1.36519 42.8681 2.52962 44.6642 4.3164C46.4604 6.10318 47.6914 8.63278 48.3372 11.9052C48.983 15.1776 49.3059 19.5542 49.3059 25.015V39.6104H47.1869V39.5702Z" fill="#51B949"/>
</svg>
