<svg width="36" height="86" viewBox="0 0 36 86" fill="none" xmlns="http://www.w3.org/2000/svg">
<path d="M33.5129 28.4017C27.8444 28.4017 23.2529 23.827 23.2529 18.1792V18.1369C23.2529 16.6684 23.1962 15.4824 23.097 14.5788C22.9978 13.6751 22.7711 12.9974 22.4168 12.5314C22.0625 12.0796 21.5382 11.769 20.8438 11.5854C20.1352 11.416 19.2283 11.3172 18.1088 11.3172C16.9184 11.3172 15.9831 11.4019 15.317 11.5854C14.651 11.7549 14.1408 12.0796 13.7865 12.5314C13.4322 12.9833 13.2055 13.661 13.1063 14.5788C13.0071 15.4824 12.9504 16.6684 12.9504 18.1369V26.312C12.9504 27.9923 13.1205 29.2347 13.4747 30.0254C13.829 30.8302 14.7077 31.6492 16.1106 32.4822C17.301 33.2588 18.9023 34.1201 20.9005 35.1084C22.8986 36.0827 25.0952 37.3111 27.476 38.7795C29.2332 39.8949 30.6503 40.9115 31.7415 41.8152C32.8327 42.7188 33.6405 43.7354 34.1648 44.8509C34.6891 45.9663 35.0434 47.2935 35.2135 48.8326C35.3835 50.3716 35.4827 52.2918 35.4827 54.5933V67.8938C35.4827 71.7343 35.256 74.8123 34.8025 77.1138C34.349 79.4153 33.4846 81.1802 32.2233 82.4086C30.9621 83.637 29.2049 84.4277 26.9658 84.823C24.7267 85.2042 21.8075 85.4019 18.2363 85.4019C14.8068 85.4019 12.0009 85.2042 9.81856 84.823C7.65036 84.4418 5.92147 83.6511 4.66023 82.4651C3.39898 81.279 2.52036 79.5282 2.02437 77.2268C1.52838 74.9253 1.28746 71.819 1.28746 67.9079V51.4588H1.32998C7.80625 51.4588 13.0638 56.6971 13.0638 63.1497V67.9079C13.0638 69.3764 13.1205 70.5483 13.2197 71.4237C13.3189 72.2991 13.5456 72.9768 13.8999 73.471C14.2542 73.9652 14.7643 74.2899 15.4304 74.4735C16.0964 74.6429 16.9892 74.7417 18.1088 74.7417C20.3478 74.7417 21.7649 74.3182 22.3743 73.4851C22.9695 72.6521 23.2671 70.8024 23.2671 67.9362V55.4687C23.2671 53.2378 23.1254 51.6282 22.842 50.654C22.5585 49.6797 21.7508 48.7337 20.4187 47.8301C19.7101 47.3359 18.8457 46.7994 17.7828 46.2063C16.7341 45.6133 15.6146 44.978 14.4101 44.3143C13.2197 43.6507 12.0009 42.973 10.7822 42.267C9.54931 41.5751 8.44395 40.9115 7.46613 40.2762C5.99232 39.3019 4.81611 38.37 3.93749 37.4946C3.05887 36.6192 2.39282 35.6591 1.93934 34.6143C1.48586 33.5694 1.18827 32.3834 1.04655 31.0562C0.904841 29.7289 0.833984 28.0911 0.833984 26.1285V18.1651C0.833984 14.3246 1.06072 11.2466 1.5142 8.94511C1.96769 6.64364 2.81796 4.86459 4.03669 3.60796C5.26959 2.35133 6.98431 1.53239 9.19503 1.15117C11.4057 0.769943 14.2967 0.572266 17.8678 0.572266C21.439 0.572266 24.3299 0.769943 26.5407 1.15117C28.7514 1.53239 30.4803 2.35133 31.7415 3.60796C33.0028 4.86459 33.8672 6.64364 34.3207 8.94511C34.7742 11.2466 35.0009 14.3246 35.0009 18.1651V28.43H33.5129V28.4017Z" fill="#164732"/>
</svg>
